<svg xmlns="http://www.w3.org/2000/svg" width="805" height="600"><rect width="805" height="600" x="0" y="0" fill="#FFFFFF" id="backgorund"/><g transform="translate(10,10)" id="visualization"><g><rect x="0" y="-1.7053025658242404e-13" height="4.538461538461538" width="5" fill="black"><title>Hyaenidae: 1</title></rect><rect x="0" y="9.538461538461368" height="4.538461538461538" width="5" fill="black"><title>Elephantidae: 1</title></rect><rect x="0" y="19.076923076922906" height="4.5384615384615365" width="5" fill="black"><title>Dasypodidae: 1</title></rect><rect x="0" y="28.615384615384443" height="4.53846153846154" width="5" fill="black"><title>Bradypodidae: 1</title></rect><rect x="0" y="38.15384615384598" height="4.538461538461533" width="5" fill="black"><title>Canidae: 1</title></rect><rect x="0" y="47.692307692307516" height="4.538461538461533" width="5" fill="black"><title>Macropodidae: 1</title></rect><rect x="0" y="57.23076923076905" height="4.538461538461533" width="5" fill="black"><title>Strigidae: 1</title></rect><rect x="0" y="66.76923076923057" height="4.538461538461533" width="5" fill="black"><title>Cricetidae: 1</title></rect><rect x="0" y="76.30769230769211" height="4.538461538461547" width="5" fill="black"><title>Columbidae: 1</title></rect><rect x="0" y="85.84615384615365" height="4.538461538461547" width="5" fill="black"><title>Dugongidae: 1</title></rect><rect x="0" y="95.3846153846152" height="4.538461538461547" width="5" fill="black"><title>Phocidae: 1</title></rect><rect x="0" y="104.92307692307675" height="4.538461538461547" width="5" fill="black"><title>Formicidae: 1</title></rect><rect x="0" y="114.4615384615383" height="4.538461538461547" width="5" fill="black"><title>Giraffidae: 1</title></rect><rect x="0" y="123.99999999999984" height="4.538461538461533" width="5" fill="black"><title>Phascolarctidae: 1</title></rect><rect x="0" y="133.53846153846138" height="4.538461538461547" width="5" fill="black"><title>Camelidae: 1</title></rect><rect x="0" y="143.07692307692292" height="4.538461538461547" width="5" fill="black"><title>Monodontidae: 1</title></rect><rect x="0" y="152.61538461538447" height="4.538461538461547" width="5" fill="black"><title>Ornithorhynchidae: 1</title></rect><rect x="0" y="162.15384615384602" height="4.538461538461547" width="5" fill="black"><title>Paguridae: 1</title></rect><rect x="780" y="122.49999999999997" height="4.538461538461547" width="5" fill="black"><title>Malacostraca: 1</title></rect><rect x="0" y="171.69230769230757" height="4.538461538461547" width="5" fill="black"><title>Muridae: 1</title></rect><rect x="0" y="181.2307692307691" height="4.538461538461547" width="5" fill="black"><title>Alligatoridae: 1</title></rect><rect x="0" y="190.76923076923066" height="4.538461538461547" width="5" fill="black"><title>Chelydridae: 1</title></rect><rect x="0" y="200.3076923076922" height="4.538461538461547" width="5" fill="black"><title>Passeridae: 1</title></rect><rect x="0" y="209.84615384615375" height="4.538461538461547" width="5" fill="black"><title>Mytilidae: 1</title></rect><rect x="780" y="132.03846153846152" height="4.538461538461547" width="5" fill="black"><title>Bivalvia: 1</title></rect><rect x="0" y="219.3846153846153" height="4.538461538461547" width="5" fill="black"><title>Laridae: 1</title></rect><rect x="0" y="228.92307692307685" height="4.538461538461547" width="5" fill="black"><title>Corvidae: 1</title></rect><rect x="0" y="238.4615384615384" height="4.538461538461547" width="5" fill="black"><title>Picidae: 1</title></rect><rect x="0" y="247.99999999999994" height="4.538461538461547" width="5" fill="black"><title>Pelecanidae: 1</title></rect><rect x="0" y="257.5384615384615" height="4.538461538461547" width="5" fill="black"><title>Boidae: 1</title></rect><rect x="0" y="267.07692307692304" height="4.538461538461547" width="5" fill="black"><title>Phasmatidae: 1</title></rect><rect x="0" y="276.6153846153846" height="4.538461538461547" width="5" fill="black"><title>Lucanidae: 1</title></rect><rect x="0" y="286.15384615384613" height="4.538461538461547" width="5" fill="black"><title>Eriophyidae: 1</title></rect><rect x="0" y="295.6923076923077" height="4.538461538461547" width="5" fill="black"><title>Lampyridae: 1</title></rect><rect x="0" y="305.2307692307692" height="4.538461538461547" width="5" fill="black"><title>Nymphalidae: 1</title></rect><rect x="0" y="314.7692307692308" height="4.538461538461547" width="5" fill="black"><title>Vespidae: 1</title></rect><rect x="0" y="324.3076923076923" height="4.538461538461547" width="5" fill="black"><title>Struthionidae: 1</title></rect><rect x="0" y="333.84615384615387" height="4.538461538461547" width="5" fill="black"><title>Lycosidae: 1</title></rect><rect x="0" y="343.3846153846154" height="4.538461538461547" width="5" fill="black"><title>Scorpionidae: 1</title></rect><rect x="780" y="141.57692307692307" height="4.538461538461547" width="5" fill="black"><title>Chelicerata: 1</title></rect><rect x="0" y="352.92307692307696" height="4.538461538461547" width="5" fill="black"><title>†Pterodactylidae: 1</title></rect><rect x="0" y="362.4615384615385" height="4.538461538461547" width="5" fill="black"><title>Viverridae: 1</title></rect><rect x="0" y="372.00000000000006" height="4.538461538461547" width="5" fill="black"><title>Mustelidae: 1</title></rect><rect x="0" y="381.5384615384616" height="4.538461538461547" width="5" fill="black"><title>Sciaenidae: 1</title></rect><rect x="0" y="391.07692307692315" height="4.538461538461547" width="5" fill="black"><title>Odobenidae: 1</title></rect><rect x="0" y="400.6153846153847" height="4.538461538461547" width="5" fill="black"><title>Testudinidae: 1</title></rect><rect x="0" y="410.15384615384625" height="4.538461538461547" width="5" fill="black"><title>Scorpaenidae: 1</title></rect><rect x="0" y="419.6923076923078" height="4.53846153846149" width="5" fill="black"><title>Erinaceidae: 1</title></rect><rect x="0" y="429.2307692307693" height="4.538461538461547" width="5" fill="black"><title>Cervidae: 1</title></rect><rect x="0" y="438.76923076923083" height="4.538461538461547" width="5" fill="black"><title>Lophiidae: 1</title></rect><rect x="0" y="448.3076923076924" height="4.538461538461547" width="5" fill="black"><title>Caviidae: 1</title></rect><rect x="0" y="457.8461538461539" height="4.538461538461547" width="5" fill="black"><title>Spheniscidae: 1</title></rect><rect x="0" y="467.3846153846155" height="4.538461538461547" width="5" fill="black"><title>Tetraodontidae: 1</title></rect><rect x="0" y="476.923076923077" height="4.538461538461547" width="5" fill="black"><title>Cacatuidae: 1</title></rect><rect x="0" y="486.46153846153857" height="4.538461538461547" width="5" fill="black"><title>Balaenidae: 1</title></rect><rect x="0" y="496.0000000000001" height="9.076923076923094" width="5" fill="black"><title>Equidae: 2</title></rect><rect x="0" y="510.0769230769232" height="9.076923076923094" width="5" fill="black"><title>Bovidae: 2</title></rect><rect x="0" y="524.1538461538463" height="9.076923076923094" width="5" fill="black"><title>Leporidae: 2</title></rect><rect x="0" y="538.2307692307694" height="9.076923076923094" width="5" fill="black"><title>Delphinidae: 2</title></rect><rect x="0" y="552.3076923076925" height="9.076923076923094" width="5" fill="black"><title>Ursidae: 2</title></rect><rect x="780" y="151.1153846153846" height="9.076923076923094" width="5" fill="black"><title>Arachnida: 2</title></rect><rect x="0" y="566.3846153846156" height="13.615384615384642" width="5" fill="black"><title>Felidae: 3</title></rect><rect x="780" y="165.1923076923077" height="18.15384615384619" width="5" fill="black"><title>Actinopterygii: 4</title></rect><rect x="780" y="188.3461538461539" height="22.69230769230768" width="5" fill="black"><title>Reptilia: 5</title></rect><rect x="780" y="216.03846153846158" height="27.230769230769226" width="5" fill="black"><title>Insecta: 6</title></rect><rect x="780" y="248.2692307692308" height="45.38461538461539" width="5" fill="black"><title>Aves: 10</title></rect><rect x="780" y="298.6538461538462" height="158.8461538461538" width="5" fill="black"><title>Mammalia: 35</title></rect></g><g fill="none" stroke-opacity="1"><g style="mix-blend-mode: multiply;"><path d="M5,2.2692307692305986C392.5,2.2692307692305986,392.5,300.92307692307696,780,300.92307692307696" stroke="#cccccc" stroke-width="4.538461538461538"/><title>Hyaenidae → Mammalia: 1</title></g><g style="mix-blend-mode: multiply;"><path d="M5,11.807692307692136C392.5,11.807692307692136,392.5,305.4615384615385,780,305.4615384615385" stroke="#cccccc" stroke-width="4.538461538461538"/><title>Elephantidae → Mammalia: 1</title></g><g style="mix-blend-mode: multiply;"><path d="M5,21.346153846153676C392.5,21.346153846153676,392.5,310.00000000000006,780,310.00000000000006" stroke="#cccccc" stroke-width="4.538461538461538"/><title>Dasypodidae → Mammalia: 1</title></g><g style="mix-blend-mode: multiply;"><path d="M5,500.53846153846166C392.5,500.53846153846166,392.5,316.8076923076924,780,316.8076923076924" stroke="#cccccc" stroke-width="9.076923076923077"/><title>Equidae → Mammalia: 2</title></g><g style="mix-blend-mode: multiply;"><path d="M5,514.6153846153848C392.5,514.6153846153848,392.5,325.8846153846155,780,325.8846153846155" stroke="#d62728" stroke-width="9.076923076923077"/><title>Bovidae → Mammalia: 2</title></g><g style="mix-blend-mode: multiply;"><path d="M5,30.884615384615213C392.5,30.884615384615213,392.5,332.6923076923078,780,332.6923076923078" stroke="#9467bd" stroke-width="4.538461538461538"/><title>Bradypodidae → Mammalia: 1</title></g><g style="mix-blend-mode: multiply;"><path d="M5,40.42307692307675C392.5,40.42307692307675,392.5,337.23076923076934,780,337.23076923076934" stroke="#7f7f7f" stroke-width="4.538461538461538"/><title>Canidae → Mammalia: 1</title></g><g style="mix-blend-mode: multiply;"><path d="M5,49.96153846153828C392.5,49.96153846153828,392.5,341.7692307692309,780,341.7692307692309" stroke="#cccccc" stroke-width="4.538461538461538"/><title>Macropodidae → Mammalia: 1</title></g><g style="mix-blend-mode: multiply;"><path d="M5,59.499999999999815C392.5,59.499999999999815,392.5,250.53846153846158,780,250.53846153846158" stroke="#cccccc" stroke-width="4.538461538461538"/><title>Strigidae → Aves: 1</title></g><g style="mix-blend-mode: multiply;"><path d="M5,528.6923076923078C392.5,528.6923076923078,392.5,348.5769230769232,780,348.5769230769232" stroke="#cccccc" stroke-width="9.076923076923077"/><title>Leporidae → Mammalia: 2</title></g><g style="mix-blend-mode: multiply;"><path d="M5,69.03846153846135C392.5,69.03846153846135,392.5,355.38461538461553,780,355.38461538461553" stroke="#cccccc" stroke-width="4.538461538461538"/><title>Cricetidae → Mammalia: 1</title></g><g style="mix-blend-mode: multiply;"><path d="M5,542.769230769231C392.5,542.769230769231,392.5,362.19230769230785,780,362.19230769230785" stroke="#cccccc" stroke-width="9.076923076923077"/><title>Delphinidae → Mammalia: 2</title></g><g style="mix-blend-mode: multiply;"><path d="M5,78.57692307692288C392.5,78.57692307692288,392.5,255.07692307692312,780,255.07692307692312" stroke="#cccccc" stroke-width="4.538461538461538"/><title>Columbidae → Aves: 1</title></g><g style="mix-blend-mode: multiply;"><path d="M5,88.11538461538443C392.5,88.11538461538443,392.5,369.00000000000017,780,369.00000000000017" stroke="#cccccc" stroke-width="4.538461538461538"/><title>Dugongidae → Mammalia: 1</title></g><g style="mix-blend-mode: multiply;"><path d="M5,97.65384615384598C392.5,97.65384615384598,392.5,373.5384615384617,780,373.5384615384617" stroke="#cccccc" stroke-width="4.538461538461538"/><title>Phocidae → Mammalia: 1</title></g><g style="mix-blend-mode: multiply;"><path d="M5,107.19230769230752C392.5,107.19230769230752,392.5,218.30769230769235,780,218.30769230769235" stroke="#cccccc" stroke-width="4.538461538461538"/><title>Formicidae → Insecta: 1</title></g><g style="mix-blend-mode: multiply;"><path d="M5,116.73076923076907C392.5,116.73076923076907,392.5,378.07692307692326,780,378.07692307692326" stroke="#cccccc" stroke-width="4.538461538461538"/><title>Giraffidae → Mammalia: 1</title></g><g style="mix-blend-mode: multiply;"><path d="M5,126.26923076923062C392.5,126.26923076923062,392.5,382.6153846153848,780,382.6153846153848" stroke="#cccccc" stroke-width="4.538461538461538"/><title>Phascolarctidae → Mammalia: 1</title></g><g style="mix-blend-mode: multiply;"><path d="M5,135.80769230769215C392.5,135.80769230769215,392.5,387.15384615384636,780,387.15384615384636" stroke="#e377c2" stroke-width="4.538461538461538"/><title>Camelidae → Mammalia: 1</title></g><g style="mix-blend-mode: multiply;"><path d="M5,573.1923076923078C392.5,573.1923076923078,392.5,396.23076923076945,780,396.23076923076945" stroke="#cccccc" stroke-width="13.615384615384615"/><title>Felidae → Mammalia: 3</title></g><g style="mix-blend-mode: multiply;"><path d="M5,145.3461538461537C392.5,145.3461538461537,392.5,405.30769230769255,780,405.30769230769255" stroke="#cccccc" stroke-width="4.538461538461538"/><title>Monodontidae → Mammalia: 1</title></g><g style="mix-blend-mode: multiply;"><path d="M5,154.88461538461524C392.5,154.88461538461524,392.5,409.8461538461541,780,409.8461538461541" stroke="#cccccc" stroke-width="4.538461538461538"/><title>Ornithorhynchidae → Mammalia: 1</title></g><g style="mix-blend-mode: multiply;"><path d="M5,556.846153846154C392.5,556.846153846154,392.5,416.6538461538464,780,416.6538461538464" stroke="#cccccc" stroke-width="9.076923076923077"/><title>Ursidae → Mammalia: 2</title></g><g style="mix-blend-mode: multiply;"><path d="M5,164.4230769230768C392.5,164.4230769230768,392.5,124.76923076923075,780,124.76923076923075" stroke="#cccccc" stroke-width="4.538461538461538"/><title>Paguridae → Malacostraca: 1</title></g><g style="mix-blend-mode: multiply;"><path d="M5,173.96153846153834C392.5,173.96153846153834,392.5,423.46153846153874,780,423.46153846153874" stroke="#cccccc" stroke-width="4.538461538461538"/><title>Muridae → Mammalia: 1</title></g><g style="mix-blend-mode: multiply;"><path d="M5,183.4999999999999C392.5,183.4999999999999,392.5,190.61538461538467,780,190.61538461538467" stroke="#1f77b4" stroke-width="4.538461538461538"/><title>Alligatoridae → Reptilia: 1</title></g><g style="mix-blend-mode: multiply;"><path d="M5,193.03846153846143C392.5,193.03846153846143,392.5,195.15384615384622,780,195.15384615384622" stroke="#cccccc" stroke-width="4.538461538461538"/><title>Chelydridae → Reptilia: 1</title></g><g style="mix-blend-mode: multiply;"><path d="M5,202.57692307692298C392.5,202.57692307692298,392.5,259.61538461538464,780,259.61538461538464" stroke="#cccccc" stroke-width="4.538461538461538"/><title>Passeridae → Aves: 1</title></g><g style="mix-blend-mode: multiply;"><path d="M5,212.11538461538453C392.5,212.11538461538453,392.5,134.3076923076923,780,134.3076923076923" stroke="#cccccc" stroke-width="4.538461538461538"/><title>Mytilidae → Bivalvia: 1</title></g><g style="mix-blend-mode: multiply;"><path d="M5,221.65384615384608C392.5,221.65384615384608,392.5,264.1538461538462,780,264.1538461538462" stroke="#cccccc" stroke-width="4.538461538461538"/><title>Laridae → Aves: 1</title></g><g style="mix-blend-mode: multiply;"><path d="M5,231.19230769230762C392.5,231.19230769230762,392.5,268.69230769230774,780,268.69230769230774" stroke="#cccccc" stroke-width="4.538461538461538"/><title>Corvidae → Aves: 1</title></g><g style="mix-blend-mode: multiply;"><path d="M5,240.73076923076917C392.5,240.73076923076917,392.5,273.2307692307693,780,273.2307692307693" stroke="#cccccc" stroke-width="4.538461538461538"/><title>Picidae → Aves: 1</title></g><g style="mix-blend-mode: multiply;"><path d="M5,250.26923076923072C392.5,250.26923076923072,392.5,277.76923076923083,780,277.76923076923083" stroke="#cccccc" stroke-width="4.538461538461538"/><title>Pelecanidae → Aves: 1</title></g><g style="mix-blend-mode: multiply;"><path d="M5,259.80769230769226C392.5,259.80769230769226,392.5,199.69230769230776,780,199.69230769230776" stroke="#2ca02c" stroke-width="4.538461538461538"/><title>Boidae → Reptilia: 1</title></g><g style="mix-blend-mode: multiply;"><path d="M5,269.3461538461538C392.5,269.3461538461538,392.5,222.8461538461539,780,222.8461538461539" stroke="#cccccc" stroke-width="4.538461538461538"/><title>Phasmatidae → Insecta: 1</title></g><g style="mix-blend-mode: multiply;"><path d="M5,278.88461538461536C392.5,278.88461538461536,392.5,227.38461538461544,780,227.38461538461544" stroke="#cccccc" stroke-width="4.538461538461538"/><title>Lucanidae → Insecta: 1</title></g><g style="mix-blend-mode: multiply;"><path d="M5,288.4230769230769C392.5,288.4230769230769,392.5,153.3846153846154,780,153.3846153846154" stroke="#cccccc" stroke-width="4.538461538461538"/><title>Eriophyidae → Arachnida: 1</title></g><g style="mix-blend-mode: multiply;"><path d="M5,297.96153846153845C392.5,297.96153846153845,392.5,231.923076923077,780,231.923076923077" stroke="#cccccc" stroke-width="4.538461538461538"/><title>Lampyridae → Insecta: 1</title></g><g style="mix-blend-mode: multiply;"><path d="M5,307.5C392.5,307.5,392.5,236.46153846153854,780,236.46153846153854" stroke="#cccccc" stroke-width="4.538461538461538"/><title>Nymphalidae → Insecta: 1</title></g><g style="mix-blend-mode: multiply;"><path d="M5,317.03846153846155C392.5,317.03846153846155,392.5,241.00000000000009,780,241.00000000000009" stroke="#cccccc" stroke-width="4.538461538461538"/><title>Vespidae → Insecta: 1</title></g><g style="mix-blend-mode: multiply;"><path d="M5,326.5769230769231C392.5,326.5769230769231,392.5,282.3076923076924,780,282.3076923076924" stroke="#cccccc" stroke-width="4.538461538461538"/><title>Struthionidae → Aves: 1</title></g><g style="mix-blend-mode: multiply;"><path d="M5,336.11538461538464C392.5,336.11538461538464,392.5,157.92307692307693,780,157.92307692307693" stroke="#cccccc" stroke-width="4.538461538461538"/><title>Lycosidae → Arachnida: 1</title></g><g style="mix-blend-mode: multiply;"><path d="M5,345.6538461538462C392.5,345.6538461538462,392.5,143.84615384615384,780,143.84615384615384" stroke="#cccccc" stroke-width="4.538461538461538"/><title>Scorpionidae → Chelicerata: 1</title></g><g style="mix-blend-mode: multiply;"><path d="M5,355.19230769230774C392.5,355.19230769230774,392.5,204.2307692307693,780,204.2307692307693" stroke="#cccccc" stroke-width="4.538461538461538"/><title>†Pterodactylidae → Reptilia: 1</title></g><g style="mix-blend-mode: multiply;"><path d="M5,364.7307692307693C392.5,364.7307692307693,392.5,428.0000000000003,780,428.0000000000003" stroke="#cccccc" stroke-width="4.538461538461538"/><title>Viverridae → Mammalia: 1</title></g><g style="mix-blend-mode: multiply;"><path d="M5,374.26923076923083C392.5,374.26923076923083,392.5,432.53846153846183,780,432.53846153846183" stroke="#cccccc" stroke-width="4.538461538461538"/><title>Mustelidae → Mammalia: 1</title></g><g style="mix-blend-mode: multiply;"><path d="M5,383.8076923076924C392.5,383.8076923076924,392.5,167.46153846153848,780,167.46153846153848" stroke="#cccccc" stroke-width="4.538461538461538"/><title>Sciaenidae → Actinopterygii: 1</title></g><g style="mix-blend-mode: multiply;"><path d="M5,393.3461538461539C392.5,393.3461538461539,392.5,437.0769230769234,780,437.0769230769234" stroke="#cccccc" stroke-width="4.538461538461538"/><title>Odobenidae → Mammalia: 1</title></g><g style="mix-blend-mode: multiply;"><path d="M5,402.8846153846155C392.5,402.8846153846155,392.5,208.76923076923086,780,208.76923076923086" stroke="#cccccc" stroke-width="4.538461538461538"/><title>Testudinidae → Reptilia: 1</title></g><g style="mix-blend-mode: multiply;"><path d="M5,412.423076923077C392.5,412.423076923077,392.5,172.00000000000003,780,172.00000000000003" stroke="#cccccc" stroke-width="4.538461538461538"/><title>Scorpaenidae → Actinopterygii: 1</title></g><g style="mix-blend-mode: multiply;"><path d="M5,421.96153846153857C392.5,421.96153846153857,392.5,441.6153846153849,780,441.6153846153849" stroke="#cccccc" stroke-width="4.538461538461538"/><title>Erinaceidae → Mammalia: 1</title></g><g style="mix-blend-mode: multiply;"><path d="M5,431.50000000000006C392.5,431.50000000000006,392.5,446.1538461538465,780,446.1538461538465" stroke="#17becf" stroke-width="4.538461538461538"/><title>Cervidae → Mammalia: 1</title></g><g style="mix-blend-mode: multiply;"><path d="M5,441.0384615384616C392.5,441.0384615384616,392.5,176.53846153846158,780,176.53846153846158" stroke="#cccccc" stroke-width="4.538461538461538"/><title>Lophiidae → Actinopterygii: 1</title></g><g style="mix-blend-mode: multiply;"><path d="M5,450.57692307692315C392.5,450.57692307692315,392.5,450.692307692308,780,450.692307692308" stroke="#bcbd22" stroke-width="4.538461538461538"/><title>Caviidae → Mammalia: 1</title></g><g style="mix-blend-mode: multiply;"><path d="M5,460.1153846153847C392.5,460.1153846153847,392.5,286.8461538461539,780,286.8461538461539" stroke="#cccccc" stroke-width="4.538461538461538"/><title>Spheniscidae → Aves: 1</title></g><g style="mix-blend-mode: multiply;"><path d="M5,469.65384615384625C392.5,469.65384615384625,392.5,181.07692307692312,780,181.07692307692312" stroke="#cccccc" stroke-width="4.538461538461538"/><title>Tetraodontidae → Actinopterygii: 1</title></g><g style="mix-blend-mode: multiply;"><path d="M5,479.1923076923078C392.5,479.1923076923078,392.5,291.3846153846155,780,291.3846153846155" stroke="#8c564b" stroke-width="4.538461538461538"/><title>Cacatuidae → Aves: 1</title></g><g style="mix-blend-mode: multiply;"><path d="M5,488.73076923076934C392.5,488.73076923076934,392.5,455.23076923076957,780,455.23076923076957" stroke="#ff7f0e" stroke-width="4.538461538461538"/><title>Balaenidae → Mammalia: 1</title></g></g><g><text x="9" y="2.2692307692305986" text-anchor="start"><tspan alignment-baseline="middle" x="9" style="font-family: Arial, sans-serif; font-size: 10px; fill: black; font-weight: bold;">Hyaenidae</tspan></text><text x="9" y="11.807692307692136" text-anchor="start"><tspan alignment-baseline="middle" x="9" style="font-family: Arial, sans-serif; font-size: 10px; fill: black; font-weight: bold;">Elephantidae</tspan></text><text x="9" y="21.346153846153676" text-anchor="start"><tspan alignment-baseline="middle" x="9" style="font-family: Arial, sans-serif; font-size: 10px; fill: black; font-weight: bold;">Dasypodidae</tspan></text><text x="9" y="30.884615384615213" text-anchor="start"><tspan alignment-baseline="middle" x="9" style="font-family: Arial, sans-serif; font-size: 10px; fill: black; font-weight: bold;">Bradypodidae</tspan></text><text x="9" y="40.42307692307675" text-anchor="start"><tspan alignment-baseline="middle" x="9" style="font-family: Arial, sans-serif; font-size: 10px; fill: black; font-weight: bold;">Canidae</tspan></text><text x="9" y="49.96153846153828" text-anchor="start"><tspan alignment-baseline="middle" x="9" style="font-family: Arial, sans-serif; font-size: 10px; fill: black; font-weight: bold;">Macropodidae</tspan></text><text x="9" y="59.499999999999815" text-anchor="start"><tspan alignment-baseline="middle" x="9" style="font-family: Arial, sans-serif; font-size: 10px; fill: black; font-weight: bold;">Strigidae</tspan></text><text x="9" y="69.03846153846135" text-anchor="start"><tspan alignment-baseline="middle" x="9" style="font-family: Arial, sans-serif; font-size: 10px; fill: black; font-weight: bold;">Cricetidae</tspan></text><text x="9" y="78.57692307692288" text-anchor="start"><tspan alignment-baseline="middle" x="9" style="font-family: Arial, sans-serif; font-size: 10px; fill: black; font-weight: bold;">Columbidae</tspan></text><text x="9" y="88.11538461538443" text-anchor="start"><tspan alignment-baseline="middle" x="9" style="font-family: Arial, sans-serif; font-size: 10px; fill: black; font-weight: bold;">Dugongidae</tspan></text><text x="9" y="97.65384615384598" text-anchor="start"><tspan alignment-baseline="middle" x="9" style="font-family: Arial, sans-serif; font-size: 10px; fill: black; font-weight: bold;">Phocidae</tspan></text><text x="9" y="107.19230769230752" text-anchor="start"><tspan alignment-baseline="middle" x="9" style="font-family: Arial, sans-serif; font-size: 10px; fill: black; font-weight: bold;">Formicidae</tspan></text><text x="9" y="116.73076923076907" text-anchor="start"><tspan alignment-baseline="middle" x="9" style="font-family: Arial, sans-serif; font-size: 10px; fill: black; font-weight: bold;">Giraffidae</tspan></text><text x="9" y="126.2692307692306" text-anchor="start"><tspan alignment-baseline="middle" x="9" style="font-family: Arial, sans-serif; font-size: 10px; fill: black; font-weight: bold;">Phascolarctidae</tspan></text><text x="9" y="135.80769230769215" text-anchor="start"><tspan alignment-baseline="middle" x="9" style="font-family: Arial, sans-serif; font-size: 10px; fill: black; font-weight: bold;">Camelidae</tspan></text><text x="9" y="145.3461538461537" text-anchor="start"><tspan alignment-baseline="middle" x="9" style="font-family: Arial, sans-serif; font-size: 10px; fill: black; font-weight: bold;">Monodontidae</tspan></text><text x="9" y="154.88461538461524" text-anchor="start"><tspan alignment-baseline="middle" x="9" style="font-family: Arial, sans-serif; font-size: 10px; fill: black; font-weight: bold;">Ornithorhynchidae</tspan></text><text x="9" y="164.4230769230768" text-anchor="start"><tspan alignment-baseline="middle" x="9" style="font-family: Arial, sans-serif; font-size: 10px; fill: black; font-weight: bold;">Paguridae</tspan></text><text x="776" y="124.76923076923075" text-anchor="end"><tspan alignment-baseline="middle" x="776" style="font-family: Arial, sans-serif; font-size: 10px; fill: black; font-weight: bold;">Malacostraca</tspan></text><text x="9" y="173.96153846153834" text-anchor="start"><tspan alignment-baseline="middle" x="9" style="font-family: Arial, sans-serif; font-size: 10px; fill: black; font-weight: bold;">Muridae</tspan></text><text x="9" y="183.4999999999999" text-anchor="start"><tspan alignment-baseline="middle" x="9" style="font-family: Arial, sans-serif; font-size: 10px; fill: black; font-weight: bold;">Alligatoridae</tspan></text><text x="9" y="193.03846153846143" text-anchor="start"><tspan alignment-baseline="middle" x="9" style="font-family: Arial, sans-serif; font-size: 10px; fill: black; font-weight: bold;">Chelydridae</tspan></text><text x="9" y="202.57692307692298" text-anchor="start"><tspan alignment-baseline="middle" x="9" style="font-family: Arial, sans-serif; font-size: 10px; fill: black; font-weight: bold;">Passeridae</tspan></text><text x="9" y="212.11538461538453" text-anchor="start"><tspan alignment-baseline="middle" x="9" style="font-family: Arial, sans-serif; font-size: 10px; fill: black; font-weight: bold;">Mytilidae</tspan></text><text x="776" y="134.3076923076923" text-anchor="end"><tspan alignment-baseline="middle" x="776" style="font-family: Arial, sans-serif; font-size: 10px; fill: black; font-weight: bold;">Bivalvia</tspan></text><text x="9" y="221.65384615384608" text-anchor="start"><tspan alignment-baseline="middle" x="9" style="font-family: Arial, sans-serif; font-size: 10px; fill: black; font-weight: bold;">Laridae</tspan></text><text x="9" y="231.19230769230762" text-anchor="start"><tspan alignment-baseline="middle" x="9" style="font-family: Arial, sans-serif; font-size: 10px; fill: black; font-weight: bold;">Corvidae</tspan></text><text x="9" y="240.73076923076917" text-anchor="start"><tspan alignment-baseline="middle" x="9" style="font-family: Arial, sans-serif; font-size: 10px; fill: black; font-weight: bold;">Picidae</tspan></text><text x="9" y="250.26923076923072" text-anchor="start"><tspan alignment-baseline="middle" x="9" style="font-family: Arial, sans-serif; font-size: 10px; fill: black; font-weight: bold;">Pelecanidae</tspan></text><text x="9" y="259.80769230769226" text-anchor="start"><tspan alignment-baseline="middle" x="9" style="font-family: Arial, sans-serif; font-size: 10px; fill: black; font-weight: bold;">Boidae</tspan></text><text x="9" y="269.3461538461538" text-anchor="start"><tspan alignment-baseline="middle" x="9" style="font-family: Arial, sans-serif; font-size: 10px; fill: black; font-weight: bold;">Phasmatidae</tspan></text><text x="9" y="278.88461538461536" text-anchor="start"><tspan alignment-baseline="middle" x="9" style="font-family: Arial, sans-serif; font-size: 10px; fill: black; font-weight: bold;">Lucanidae</tspan></text><text x="9" y="288.4230769230769" text-anchor="start"><tspan alignment-baseline="middle" x="9" style="font-family: Arial, sans-serif; font-size: 10px; fill: black; font-weight: bold;">Eriophyidae</tspan></text><text x="9" y="297.96153846153845" text-anchor="start"><tspan alignment-baseline="middle" x="9" style="font-family: Arial, sans-serif; font-size: 10px; fill: black; font-weight: bold;">Lampyridae</tspan></text><text x="9" y="307.5" text-anchor="start"><tspan alignment-baseline="middle" x="9" style="font-family: Arial, sans-serif; font-size: 10px; fill: black; font-weight: bold;">Nymphalidae</tspan></text><text x="9" y="317.03846153846155" text-anchor="start"><tspan alignment-baseline="middle" x="9" style="font-family: Arial, sans-serif; font-size: 10px; fill: black; font-weight: bold;">Vespidae</tspan></text><text x="9" y="326.5769230769231" text-anchor="start"><tspan alignment-baseline="middle" x="9" style="font-family: Arial, sans-serif; font-size: 10px; fill: black; font-weight: bold;">Struthionidae</tspan></text><text x="9" y="336.11538461538464" text-anchor="start"><tspan alignment-baseline="middle" x="9" style="font-family: Arial, sans-serif; font-size: 10px; fill: black; font-weight: bold;">Lycosidae</tspan></text><text x="9" y="345.6538461538462" text-anchor="start"><tspan alignment-baseline="middle" x="9" style="font-family: Arial, sans-serif; font-size: 10px; fill: black; font-weight: bold;">Scorpionidae</tspan></text><text x="776" y="143.84615384615384" text-anchor="end"><tspan alignment-baseline="middle" x="776" style="font-family: Arial, sans-serif; font-size: 10px; fill: black; font-weight: bold;">Chelicerata</tspan></text><text x="9" y="355.19230769230774" text-anchor="start"><tspan alignment-baseline="middle" x="9" style="font-family: Arial, sans-serif; font-size: 10px; fill: black; font-weight: bold;">†Pterodactylidae</tspan></text><text x="9" y="364.7307692307693" text-anchor="start"><tspan alignment-baseline="middle" x="9" style="font-family: Arial, sans-serif; font-size: 10px; fill: black; font-weight: bold;">Viverridae</tspan></text><text x="9" y="374.26923076923083" text-anchor="start"><tspan alignment-baseline="middle" x="9" style="font-family: Arial, sans-serif; font-size: 10px; fill: black; font-weight: bold;">Mustelidae</tspan></text><text x="9" y="383.8076923076924" text-anchor="start"><tspan alignment-baseline="middle" x="9" style="font-family: Arial, sans-serif; font-size: 10px; fill: black; font-weight: bold;">Sciaenidae</tspan></text><text x="9" y="393.3461538461539" text-anchor="start"><tspan alignment-baseline="middle" x="9" style="font-family: Arial, sans-serif; font-size: 10px; fill: black; font-weight: bold;">Odobenidae</tspan></text><text x="9" y="402.8846153846155" text-anchor="start"><tspan alignment-baseline="middle" x="9" style="font-family: Arial, sans-serif; font-size: 10px; fill: black; font-weight: bold;">Testudinidae</tspan></text><text x="9" y="412.423076923077" text-anchor="start"><tspan alignment-baseline="middle" x="9" style="font-family: Arial, sans-serif; font-size: 10px; fill: black; font-weight: bold;">Scorpaenidae</tspan></text><text x="9" y="421.96153846153857" text-anchor="start"><tspan alignment-baseline="middle" x="9" style="font-family: Arial, sans-serif; font-size: 10px; fill: black; font-weight: bold;">Erinaceidae</tspan></text><text x="9" y="431.50000000000006" text-anchor="start"><tspan alignment-baseline="middle" x="9" style="font-family: Arial, sans-serif; font-size: 10px; fill: black; font-weight: bold;">Cervidae</tspan></text><text x="9" y="441.0384615384616" text-anchor="start"><tspan alignment-baseline="middle" x="9" style="font-family: Arial, sans-serif; font-size: 10px; fill: black; font-weight: bold;">Lophiidae</tspan></text><text x="9" y="450.57692307692315" text-anchor="start"><tspan alignment-baseline="middle" x="9" style="font-family: Arial, sans-serif; font-size: 10px; fill: black; font-weight: bold;">Caviidae</tspan></text><text x="9" y="460.1153846153847" text-anchor="start"><tspan alignment-baseline="middle" x="9" style="font-family: Arial, sans-serif; font-size: 10px; fill: black; font-weight: bold;">Spheniscidae</tspan></text><text x="9" y="469.65384615384625" text-anchor="start"><tspan alignment-baseline="middle" x="9" style="font-family: Arial, sans-serif; font-size: 10px; fill: black; font-weight: bold;">Tetraodontidae</tspan></text><text x="9" y="479.1923076923078" text-anchor="start"><tspan alignment-baseline="middle" x="9" style="font-family: Arial, sans-serif; font-size: 10px; fill: black; font-weight: bold;">Cacatuidae</tspan></text><text x="9" y="488.73076923076934" text-anchor="start"><tspan alignment-baseline="middle" x="9" style="font-family: Arial, sans-serif; font-size: 10px; fill: black; font-weight: bold;">Balaenidae</tspan></text><text x="9" y="500.53846153846166" text-anchor="start"><tspan alignment-baseline="middle" x="9" style="font-family: Arial, sans-serif; font-size: 10px; fill: black; font-weight: bold;">Equidae</tspan></text><text x="9" y="514.6153846153848" text-anchor="start"><tspan alignment-baseline="middle" x="9" style="font-family: Arial, sans-serif; font-size: 10px; fill: black; font-weight: bold;">Bovidae</tspan></text><text x="9" y="528.6923076923078" text-anchor="start"><tspan alignment-baseline="middle" x="9" style="font-family: Arial, sans-serif; font-size: 10px; fill: black; font-weight: bold;">Leporidae</tspan></text><text x="9" y="542.769230769231" text-anchor="start"><tspan alignment-baseline="middle" x="9" style="font-family: Arial, sans-serif; font-size: 10px; fill: black; font-weight: bold;">Delphinidae</tspan></text><text x="9" y="556.846153846154" text-anchor="start"><tspan alignment-baseline="middle" x="9" style="font-family: Arial, sans-serif; font-size: 10px; fill: black; font-weight: bold;">Ursidae</tspan></text><text x="776" y="155.65384615384616" text-anchor="end"><tspan alignment-baseline="middle" x="776" style="font-family: Arial, sans-serif; font-size: 10px; fill: black; font-weight: bold;">Arachnida</tspan></text><text x="9" y="573.1923076923078" text-anchor="start"><tspan alignment-baseline="middle" x="9" style="font-family: Arial, sans-serif; font-size: 10px; fill: black; font-weight: bold;">Felidae</tspan></text><text x="776" y="174.2692307692308" text-anchor="end"><tspan alignment-baseline="middle" x="776" style="font-family: Arial, sans-serif; font-size: 10px; fill: black; font-weight: bold;">Actinopterygii</tspan></text><text x="776" y="199.69230769230774" text-anchor="end"><tspan alignment-baseline="middle" x="776" style="font-family: Arial, sans-serif; font-size: 10px; fill: black; font-weight: bold;">Reptilia</tspan></text><text x="776" y="229.6538461538462" text-anchor="end"><tspan alignment-baseline="middle" x="776" style="font-family: Arial, sans-serif; font-size: 10px; fill: black; font-weight: bold;">Insecta</tspan></text><text x="776" y="270.9615384615385" text-anchor="end"><tspan alignment-baseline="middle" x="776" style="font-family: Arial, sans-serif; font-size: 10px; fill: black; font-weight: bold;">Aves</tspan></text><text x="776" y="378.0769230769231" text-anchor="end"><tspan alignment-baseline="middle" x="776" style="font-family: Arial, sans-serif; font-size: 10px; fill: black; font-weight: bold;">Mammalia</tspan></text></g><g><text x="2.5" y="-4.0000000000001705" text-anchor="middle" style="font-family: Arial, sans-serif; font-size: 12px; fill: rgb(123, 123, 123); font-weight: bold;">Family</text><text x="782.5" y="118.49999999999997" text-anchor="middle" style="font-family: Arial, sans-serif; font-size: 12px; fill: rgb(123, 123, 123); font-weight: bold;">Class</text></g></g></svg>